<?xml version="1.0" encoding="UTF-8"?>
<svg xmlns="http://www.w3.org/2000/svg" xmlns:xlink="http://www.w3.org/1999/xlink" width="18px" height="px" viewBox="0 0 18 18" version="1.1">
<g id="surface1">
<path style=" stroke:none;fill-rule:nonzero;fill:rgb(0%,0%,0%);fill-opacity:1;" d="M 3.605469 12.003906 C 3.40625 12.003906 3.222656 11.890625 3.136719 11.710938 C 1.859375 9.171875 2.355469 6.097656 4.371094 4.089844 C 6.941406 1.515625 11.128906 1.515625 13.699219 4.089844 C 13.902344 4.292969 13.898438 4.625 13.695312 4.828125 C 13.492188 5.03125 13.164062 5.035156 12.957031 4.832031 C 10.792969 2.671875 7.277344 2.671875 5.113281 4.832031 C 3.421875 6.519531 3.003906 9.105469 4.078125 11.238281 C 4.160156 11.402344 4.152344 11.597656 4.054688 11.753906 C 3.960938 11.90625 3.789062 12.003906 3.605469 12.003906 Z M 3.605469 12.003906 "/>
<path style=" stroke:none;fill-rule:nonzero;fill:rgb(0%,0%,0%);fill-opacity:1;" d="M 9.035156 15.347656 C 7.285156 15.351562 5.605469 14.660156 4.371094 13.421875 C 4.164062 13.214844 4.164062 12.878906 4.367188 12.675781 C 4.574219 12.46875 4.910156 12.46875 5.113281 12.675781 C 7.277344 14.835938 10.792969 14.835938 12.957031 12.675781 C 14.648438 10.988281 15.066406 8.402344 13.992188 6.269531 C 13.863281 6.007812 13.96875 5.691406 14.226562 5.5625 C 14.488281 5.429688 14.804688 5.535156 14.933594 5.796875 C 15.960938 7.839844 15.855469 10.273438 14.652344 12.21875 C 13.449219 14.167969 11.324219 15.351562 9.035156 15.347656 Z M 9.035156 15.347656 "/>
<path style=" stroke:none;fill-rule:nonzero;fill:rgb(0%,0%,0%);fill-opacity:1;" d="M 11.082031 5.210938 C 10.800781 5.210938 10.570312 4.992188 10.558594 4.710938 C 10.542969 4.429688 10.75 4.1875 11.03125 4.160156 L 12.699219 3.992188 L 12.363281 2.316406 C 12.308594 2.035156 12.496094 1.761719 12.777344 1.703125 C 13.0625 1.648438 13.335938 1.828125 13.398438 2.113281 L 13.84375 4.359375 C 13.875 4.503906 13.839844 4.65625 13.75 4.777344 C 13.664062 4.894531 13.527344 4.972656 13.378906 4.988281 L 11.132812 5.210938 C 11.117188 5.210938 11.097656 5.210938 11.082031 5.210938 Z M 11.082031 5.210938 "/>
<path style=" stroke:none;fill-rule:nonzero;fill:rgb(0%,0%,0%);fill-opacity:1;" d="M 5.1875 15.820312 C 4.9375 15.820312 4.722656 15.640625 4.671875 15.394531 L 4.226562 13.148438 C 4.195312 13.003906 4.230469 12.851562 4.316406 12.734375 C 4.40625 12.613281 4.542969 12.535156 4.691406 12.523438 L 6.9375 12.296875 C 7.226562 12.269531 7.484375 12.480469 7.511719 12.769531 C 7.542969 13.058594 7.332031 13.320312 7.042969 13.347656 L 5.375 13.515625 L 5.707031 15.191406 C 5.738281 15.34375 5.699219 15.503906 5.597656 15.628906 C 5.496094 15.75 5.347656 15.820312 5.1875 15.820312 Z M 5.1875 15.820312 "/>
</g>
</svg>
