<?xml version="1.0" encoding="UTF-8"?>
<svg xmlns="http://www.w3.org/2000/svg" xmlns:xlink="http://www.w3.org/1999/xlink" width="18px" height="px" viewBox="0 0 18 18" version="1.1">
<g id="surface1">
<path style=" stroke:none;fill-rule:nonzero;fill:rgb(100%,97.254902%,82.352941%);fill-opacity:1;" d="M 9 16.3125 C 4.960938 16.3125 1.6875 13.039062 1.6875 9 C 1.6875 4.960938 4.960938 1.6875 9 1.6875 C 13.039062 1.6875 16.3125 4.960938 16.3125 9 C 16.3125 13.039062 13.039062 16.3125 9 16.3125 Z M 9 2.8125 C 5.582031 2.8125 2.8125 5.582031 2.8125 9 C 2.8125 12.417969 5.582031 15.1875 9 15.1875 C 12.417969 15.1875 15.1875 12.417969 15.1875 9 C 15.1875 5.582031 12.417969 2.8125 9 2.8125 Z M 9 2.8125 "/>
<path style=" stroke:none;fill-rule:nonzero;fill:rgb(100%,97.254902%,82.352941%);fill-opacity:1;" d="M 9 12.9375 C 8.6875 12.9375 8.4375 12.6875 8.4375 12.375 L 8.4375 5.625 C 8.4375 5.3125 8.6875 5.0625 9 5.0625 C 9.3125 5.0625 9.5625 5.3125 9.5625 5.625 L 9.5625 12.375 C 9.5625 12.6875 9.3125 12.9375 9 12.9375 Z M 9 12.9375 "/>
<path style=" stroke:none;fill-rule:nonzero;fill:rgb(100%,97.254902%,82.352941%);fill-opacity:1;" d="M 12.375 9.5625 L 5.625 9.5625 C 5.3125 9.5625 5.0625 9.3125 5.0625 9 C 5.0625 8.6875 5.3125 8.4375 5.625 8.4375 L 12.375 8.4375 C 12.6875 8.4375 12.9375 8.6875 12.9375 9 C 12.9375 9.3125 12.6875 9.5625 12.375 9.5625 Z M 12.375 9.5625 "/>
</g>
</svg>
