<?xml version="1.0" encoding="UTF-8"?>
<svg xmlns="http://www.w3.org/2000/svg" xmlns:xlink="http://www.w3.org/1999/xlink" width="18px" height="px" viewBox="0 0 18 18" version="1.1">
<defs>
<clipPath id="clip1">
  <path d="M 0 1.976562 L 17.714844 1.976562 L 17.714844 16.023438 L 0 16.023438 Z M 0 1.976562 "/>
</clipPath>
</defs>
<g id="surface1">
<g clip-path="url(#clip1)" clip-rule="nonzero">
<path style=" stroke:none;fill-rule:nonzero;fill:rgb(0%,0%,0%);fill-opacity:1;" d="M 16.566406 3.113281 C 15.777344 2.355469 14.800781 1.976562 13.800781 1.976562 C 12.796875 1.976562 11.796875 2.355469 11.035156 3.113281 L 9.832031 4.300781 C 10.25 4.519531 10.648438 4.785156 10.992188 5.125 C 11.082031 5.210938 11.15625 5.304688 11.234375 5.394531 L 12.285156 4.355469 C 12.691406 3.953125 13.203125 3.730469 13.800781 3.730469 C 14.371094 3.730469 14.910156 3.953125 15.3125 4.351562 C 15.71875 4.753906 15.941406 5.289062 15.941406 5.855469 C 15.941406 6.421875 15.71875 6.953125 15.3125 7.355469 L 11.625 11.011719 C 11.222656 11.390625 10.683594 11.632812 10.113281 11.632812 C 9.542969 11.632812 9.003906 11.414062 8.597656 11.011719 C 8.191406 10.609375 7.945312 10.078125 7.945312 9.511719 C 7.945312 8.941406 8.167969 8.410156 8.574219 8.007812 L 8.695312 7.914062 C 8.636719 7.804688 8.578125 7.695312 8.488281 7.609375 C 8.25 7.371094 7.9375 7.242188 7.601562 7.242188 C 7.269531 7.242188 6.960938 7.371094 6.726562 7.601562 C 5.875 9.082031 6.070312 10.992188 7.34375 12.253906 C 8.109375 13.011719 9.113281 13.390625 10.113281 13.390625 C 11.113281 13.390625 12.117188 13.011719 12.878906 12.253906 L 16.566406 8.597656 C 17.355469 7.816406 17.738281 6.785156 17.710938 5.761719 C 17.6875 4.777344 17.308594 3.847656 16.566406 3.113281 Z M 6.476562 12.605469 L 5.425781 13.644531 C 5.023438 14.023438 4.484375 14.269531 3.914062 14.269531 C 3.339844 14.269531 2.804688 14.046875 2.398438 13.648438 C 1.996094 13.246094 1.773438 12.710938 1.773438 12.144531 C 1.773438 11.578125 1.996094 11.046875 2.398438 10.644531 L 6.089844 6.988281 C 6.492188 6.585938 7.003906 6.367188 7.601562 6.367188 C 8.195312 6.367188 8.710938 6.585938 9.113281 6.988281 C 9.519531 7.386719 9.742188 7.921875 9.742188 8.488281 C 9.742188 9.054688 9.519531 9.589844 9.113281 9.988281 L 9.015625 10.085938 C 9.074219 10.195312 9.132812 10.304688 9.222656 10.390625 C 9.464844 10.628906 9.777344 10.757812 10.113281 10.757812 C 10.445312 10.757812 10.753906 10.628906 10.988281 10.398438 C 11.839844 8.917969 11.640625 7.007812 10.367188 5.746094 C 9.578125 4.988281 8.601562 4.609375 7.601562 4.609375 C 6.597656 4.609375 5.597656 4.988281 4.835938 5.746094 L 1.144531 9.402344 C 0.382812 10.160156 0 11.152344 0 12.144531 C 0 13.140625 0.382812 14.132812 1.144531 14.890625 C 1.910156 15.644531 2.910156 16.023438 3.914062 16.023438 C 4.914062 16.023438 5.917969 15.644531 6.679688 14.886719 L 7.878906 13.699219 C 7.460938 13.480469 7.066406 13.214844 6.71875 12.875 C 6.632812 12.789062 6.558594 12.695312 6.476562 12.605469 Z M 6.476562 12.605469 "/>
</g>
</g>
</svg>
