<?xml version="1.0" encoding="UTF-8"?>
<svg xmlns="http://www.w3.org/2000/svg" xmlns:xlink="http://www.w3.org/1999/xlink" width="18px" height="px" viewBox="0 0 18 18" version="1.1">
<g id="surface1">
<path style=" stroke:none;fill-rule:nonzero;fill:rgb(71.372549%,71.372549%,71.372549%);fill-opacity:1;" d="M 15.421875 13.828125 L 12.566406 10.972656 C 13.15625 10.085938 13.5 9.019531 13.5 7.875 C 13.5 4.773438 10.976562 2.25 7.875 2.25 C 4.773438 2.25 2.25 4.773438 2.25 7.875 C 2.25 10.976562 4.773438 13.5 7.875 13.5 C 9.019531 13.5 10.085938 13.15625 10.972656 12.566406 L 13.828125 15.421875 C 14.269531 15.859375 14.980469 15.859375 15.421875 15.421875 C 15.859375 14.980469 15.859375 14.269531 15.421875 13.828125 Z M 3.9375 7.875 C 3.9375 5.703125 5.703125 3.9375 7.875 3.9375 C 10.046875 3.9375 11.8125 5.703125 11.8125 7.875 C 11.8125 10.046875 10.046875 11.8125 7.875 11.8125 C 5.703125 11.8125 3.9375 10.046875 3.9375 7.875 Z M 3.9375 7.875 "/>
</g>
</svg>
