<?xml version="1.0" encoding="UTF-8"?>
<svg width="24" height="24" fill="none" viewBox="0 0 41 32" xmlns="http://www.w3.org/2000/svg">
<g clip-path="url(#a)">
<path d="m37.738 2.5881c-1.7967-1.7256-4.0221-2.5881-6.3043-2.5881s-4.5618 0.8625-6.3018 2.5881l-2.7336 2.71c0.9526 0.50075 1.8579 1.0988 2.6421 1.8763 0.1984 0.19662 0.3719 0.40737 0.5512 0.61487l2.3931-2.3725c0.9209-0.91362 2.0935-1.4168 3.449-1.4168 1.3031 0 2.528 0.50294 3.4491 1.4162 0.9211 0.91313 1.4286 2.1275 1.4286 3.4194 0 1.2919-0.5075 2.5063-1.4286 3.4194l-8.4037 8.3313c-0.9148 0.8575-2.1441 1.4137-3.4428 1.4137s-2.5281-0.503-3.4491-1.4163c-0.9261-0.915-1.4872-2.1274-1.4872-3.4212 0-1.2937 0.5073-2.5063 1.4285-3.4194l0.28-0.2181c-0.1324-0.2438-0.2711-0.4938-0.4729-0.6937-0.5421-0.5376-1.2545-0.8313-2.0237-0.8313-0.7521 0-1.4563 0.2915-1.9928 0.8106-1.936 3.3725-1.4897 7.725 1.4116 10.6 1.7412 1.7269 4.0234 2.5894 6.3056 2.5894 2.2809 0 4.5618-0.8625 6.3018-2.5881l8.3999-8.3306c1.7936-1.7782 2.663-4.1257 2.6081-6.4563-0.0548-2.2438-0.9185-4.365-2.6081-6.0369zm-22.986 21.624l-2.3894 2.3687c-0.9204 0.8625-2.1498 1.4188-3.4484 1.4188-1.3031 0-2.528-0.5029-3.4491-1.4163-0.92107-0.9131-1.4286-2.1274-1.4286-3.4193s0.50744-2.5063 1.4286-3.4194l8.4037-8.3313c0.9148-0.9137 2.0874-1.4137 3.4428-1.4137 1.3555 0 2.5281 0.503 3.4491 1.4163 0.9217 0.9131 1.4286 2.1274 1.4286 3.4193s-0.5073 2.5063-1.4286 3.4194l-0.2212 0.22c0.132 0.2462 0.2659 0.4934 0.4706 0.6969 0.5444 0.5343 1.2631 0.8281 2.0259 0.8281 0.7521 0 1.4563-0.2915 1.9928-0.8106 1.9361-3.3725 1.4897-7.725-1.4116-10.6-1.798-1.7269-4.0234-2.5894-6.3056-2.5894-2.2821 0-4.558 0.8625-6.298 2.5875l-8.4031 8.3313c-1.74 1.725-2.6106 3.9862-2.6106 6.2475-6.3043e-6 2.2612 0.87 4.5225 2.6106 6.2481 1.74 1.7231 4.0215 2.5856 6.3037 2.5856 2.281 0 4.5618-0.8625 6.3018-2.5881l2.7335-2.71c-0.9525-0.5008-1.8579-1.0988-2.6421-1.8763-0.2024-0.1943-0.3726-0.4069-0.5554-0.6131z" fill="#000"/>
</g>
<defs>
<clipPath id="a">
<rect width="40.348" height="32" fill="#fff"/>
</clipPath>
</defs>
</svg>
